<svg xmlns="http://www.w3.org/2000/svg" xmlns:xlink="http://www.w3.org/1999/xlink" version="1.1" x="0px" y="0px" viewBox="0 0 100 125" enable-background="new 0 0 100 100" xml:space="preserve"><path d="M50,5.154C25.271,5.154,5.154,25.272,5.154,50S25.271,94.846,50,94.846c24.728,0,44.846-20.118,44.846-44.846  S74.728,5.154,50,5.154z M51.85,90.832L50,62.782l-1.85,28.05C27.073,89.888,10.102,72.911,9.168,51.831L36.942,50L9.168,48.168  c0.935-21.079,17.905-38.056,38.982-39L50,37.22l1.85-28.052c21.072,0.943,38.038,17.911,38.982,38.982L62.782,50l28.05,1.85  C89.889,72.921,72.922,89.888,51.85,90.832z"/><text x="0" y="115" fill="#000000" font-size="5px" font-weight="bold" font-family="'Helvetica Neue', Helvetica, Arial-Unicode, Arial, Sans-serif">Created by Alex Koev</text><text x="0" y="120" fill="#000000" font-size="5px" font-weight="bold" font-family="'Helvetica Neue', Helvetica, Arial-Unicode, Arial, Sans-serif">from the Noun Project</text></svg>